<?xml version="1.0" encoding="UTF-8" standalone="no"?>
<!-- Created with Inkscape (http://www.inkscape.org/) -->

<svg
   xmlns="http://www.w3.org/2000/svg"
   width="1000"
   height="300"
   viewBox="37 38 53 10"
   >
   <style>

	   .black {
	   color: #231f20;
	   	animation: moveUp 1.5s ease-in;
		transform-origin: center center;
	   }
	   .arrow-black {
	   	fill: #231f20;
		animation: moveLeft 1.5s ease-in;

	   }
	   .arrow-red {
	   	animation: moveDown 1.5s  ease-in;
	   	 fill: #ed114e;

	   }

	  @keyframes moveDown {
		  0% {
		  transform: translateY(-15px);
		  }
		  100% {
		    transform: translateY(0);
		  }
	  }
	  @keyframes moveUp {
		  0% {
		  transform: translateY(15px);
		  }
		  100% {
		    transform: translateY(0);
		  }
	  }
	  @keyframes moveLeft {
		  0% {
		  	transform: translateX(15px);
		  }
		  100% {
		    transform: translateX(0);
		  }
	  }



   </style>
  <path
	 class="arrow-red"
     d="m 76.785395,36.136494 h 3.98629 v 2.3385 l 2.33852,-2.3385 h 5.63461 l -11.95942,11.95938 z" />
  <path
     class="arrow-black"
     d="m 90.512405,49.863504 v -3.98632 h -2.33849 l 2.33849,-2.33849 v -5.6346 l -11.95941,11.95941 z" />
  <path
     class="black"
     d="m 40.847615,47.220704 -1.2233,-3.08832 h -0.72661 v 3.08832 h -2.41011 v -8.42931 h 3.97242 c 0.44408,0 0.84578,0.0605 1.20509,0.18158 0.3593,0.12121 0.66611,0.29682 0.92039,0.52691 0.25432,0.23011 0.4481,0.5086 0.58131,0.83562 0.13328,0.32699 0.19989,0.69638 0.19989,1.10818 0,0.4844 -0.11709,0.9265 -0.3513,1.3262 -0.2341,0.39959 -0.61761,0.72062 -1.15048,0.9628 l 1.51388,3.48802 z m 0.0969,-5.74072 c 0,-0.28261 -0.0969,-0.4844 -0.29069,-0.6055 -0.19378,-0.12111 -0.3997,-0.18169 -0.61768,-0.18169 h -1.13841 v 1.56228 h 1.21108 c 0.0888,0 0.18172,-0.0121 0.27852,-0.0363 0.0969,-0.0242 0.18778,-0.0666 0.27249,-0.12718 0.0848,-0.0605 0.15342,-0.14121 0.20591,-0.24221 0.0525,-0.1009 0.0788,-0.22398 0.0788,-0.3694 z m 2.79763,5.74072 v -1.73193 l 3.706,-4.78388 h -3.54862 v -1.9135 h 6.30992 v 1.68339 l -3.6939,4.78391 h 3.6939 v 1.96201 z m 15.00558,-2.39801 c 0,0.3876 -0.0747,0.73269 -0.22408,1.03548 -0.14941,0.30282 -0.3573,0.56113 -0.62372,0.77512 -0.26648,0.214 -0.58539,0.37751 -0.9568,0.4905 -0.3714,0.113 -0.77911,0.16958 -1.22319,0.16958 -0.26652,0 -0.54299,-0.0243 -0.82959,-0.0727 -0.2867,-0.0484 -0.57333,-0.12111 -0.85993,-0.21801 -0.2866,-0.0969 -0.5612,-0.21601 -0.82359,-0.3573 -0.2624,-0.14132 -0.50261,-0.30882 -0.72059,-0.5026 l 0.67818,-0.8599 c 0.3392,0.32301 0.73071,0.56921 1.17482,0.73879 0.44408,0.16962 0.92051,0.25432 1.42911,0.25432 0.26648,0 0.51477,-0.0282 0.74489,-0.0847 0.23008,-0.0566 0.42788,-0.14341 0.5934,-0.26042 0.16549,-0.11709 0.29669,-0.2685 0.3936,-0.4542 0.0969,-0.18571 0.14541,-0.40771 0.14541,-0.66608 0,-0.24222 -0.0525,-0.44002 -0.15751,-0.59352 -0.10499,-0.15339 -0.24631,-0.28049 -0.4239,-0.38149 -0.17759,-0.1009 -0.38351,-0.18359 -0.61761,-0.24822 -0.23421,-0.0646 -0.4845,-0.12107 -0.75089,-0.16958 -0.33111,-0.0646 -0.6581,-0.13522 -0.981,-0.21191 -0.323,-0.0767 -0.61369,-0.19579 -0.872,-0.3573 -0.25841,-0.1615 -0.46831,-0.38149 -0.62981,-0.66011 -0.1615,-0.27849 -0.24218,-0.64788 -0.24218,-1.10808 0,-0.3876 0.0747,-0.7287 0.22398,-1.02341 0.1494,-0.29471 0.3533,-0.54299 0.61161,-0.74478 0.25841,-0.20193 0.55509,-0.35331 0.8902,-0.4542 0.3351,-0.10093 0.69229,-0.15141 1.07181,-0.15141 0.57329,0 1.07787,0.0646 1.51387,0.19381 0.436,0.12919 0.8316,0.335 1.18692,0.61757 l -0.59341,0.90841 c -0.30691,-0.21001 -0.63588,-0.3755 -0.9871,-0.49661 -0.35119,-0.12107 -0.72461,-0.18157 -1.12028,-0.18157 -0.56522,0 -0.99713,0.11698 -1.2959,0.35119 -0.29873,0.2341 -0.44813,0.56109 -0.44813,0.981 0,0.21798 0.0505,0.40171 0.15141,0.55101 0.10089,0.1494 0.25231,0.27657 0.4542,0.38149 0.20179,0.10499 0.45011,0.19579 0.74482,0.27248 0.29468,0.0767 0.63179,0.15142 1.01127,0.22412 0.26642,0.0565 0.53891,0.1251 0.81753,0.20589 0.27859,0.0807 0.53287,0.2038 0.76299,0.36939 0.23008,0.16552 0.41779,0.38551 0.56321,0.66001 0.14527,0.2745 0.21798,0.6338 0.21798,1.07791 z m 2.42701,2.39801 c -0.4118,0 -0.7468,-0.11913 -1.00521,-0.35733 -0.25841,-0.23819 -0.3876,-0.58737 -0.3876,-1.04757 v -3.7423 h -0.71451 v -0.8599 h 0.71451 v -1.48971 h 0.99321 v 1.48971 h 0.9204 v 0.8599 h -0.9204 v 3.50008 c 0,0.1857 0.0363,0.35729 0.10901,0.5147 0.0726,0.15752 0.23407,0.23619 0.4844,0.23619 h 0.52077 v 0.89623 z m 3.60189,-6.06771 c 0.3229,0 0.63179,0.0303 0.9265,0.0909 0.29471,0.0605 0.55302,0.16351 0.77509,0.30882 0.222,0.14531 0.39761,0.34318 0.5268,0.59341 0.12923,0.25029 0.19382,0.56518 0.19382,0.94467 v 4.12993 h -1.00521 v -0.52081 l -0.0121,-0.0121 c -0.1131,0.17759 -0.31488,0.32301 -0.60561,0.436 -0.29069,0.113 -0.64188,0.16958 -1.05368,0.16958 -0.68629,0 -1.21309,-0.1676 -1.58051,-0.5026 -0.36728,-0.3351 -0.551,-0.76098 -0.551,-1.2778 0,-0.2341 0.0404,-0.45818 0.1211,-0.67207 0.0807,-0.21403 0.19982,-0.40171 0.3573,-0.56321 0.15741,-0.16151 0.35521,-0.29069 0.59341,-0.3876 0.23819,-0.0968 0.51879,-0.14531 0.84169,-0.14531 h 1.8894 v -0.67818 c 0,-0.33101 -0.10901,-0.57732 -0.32698,-0.73882 -0.21802,-0.1615 -0.56921,-0.24218 -1.05372,-0.24218 -0.37948,0 -0.67821,0.0464 -0.8962,0.13927 -0.21801,0.0928 -0.3956,0.22003 -0.5329,0.3815 l -0.62979,-0.66608 c 0.2261,-0.25841 0.51678,-0.4542 0.872,-0.58741 0.35528,-0.13328 0.73878,-0.19989 1.15058,-0.19989 z m -1.4412,4.29948 c 0,0.28261 0.10689,0.5086 0.32092,0.67822 0.214,0.16958 0.543,0.25428 0.98707,0.25428 0.19371,0 0.38351,-0.0161 0.56921,-0.0484 0.1857,-0.0323 0.35119,-0.0908 0.4965,-0.17558 0.14541,-0.0848 0.2624,-0.1978 0.3513,-0.33909 0.0888,-0.14132 0.1332,-0.32501 0.1332,-0.55111 v -0.70241 h -1.64708 c -0.38763,0 -0.68633,0.0767 -0.8963,0.23011 -0.20991,0.15339 -0.31482,0.37141 -0.31482,0.65398 z m 6.8598,0.37543 c 0.0969,-0.29873 0.2038,-0.62982 0.32092,-0.99311 0.11709,-0.36332 0.21999,-0.6944 0.30879,-0.9931 0.14541,-0.42792 0.29068,-0.86589 0.43599,-1.3141 0.14542,-0.4481 0.29069,-0.88611 0.436,-1.31399 h 1.10222 l -2.21643,6.0071 h -0.872 l -2.22839,-6.0071 h 1.09001 c 0.14528,0.41977 0.29059,0.85577 0.436,1.30799 0.14531,0.45209 0.29059,0.88809 0.436,1.308 l 0.70238,1.99831 z" />

</svg>
